<svg width="14" height="14" viewBox="0 0 14 14" fill="none" xmlns="http://www.w3.org/2000/svg">
<path d="M7.80769 6.9978C7.80769 7.15756 7.76032 7.31374 7.67157 7.44657C7.58282 7.57941 7.45668 7.68294 7.30909 7.74408C7.1615 7.80522 6.9991 7.82122 6.84243 7.79005C6.68575 7.75888 6.54183 7.68195 6.42888 7.56898C6.31592 7.45601 6.23899 7.31208 6.20783 7.15539C6.17666 6.9987 6.19266 6.83628 6.25379 6.68868C6.31492 6.54108 6.41845 6.41492 6.55127 6.32616C6.68409 6.2374 6.84025 6.19003 7 6.19003C7.21421 6.19003 7.41965 6.27513 7.57112 6.42662C7.7226 6.57811 7.80769 6.78357 7.80769 6.9978ZM4.03846 6.19003C3.87872 6.19003 3.72256 6.2374 3.58973 6.32616C3.45691 6.41492 3.35338 6.54108 3.29225 6.68868C3.23112 6.83628 3.21512 6.9987 3.24629 7.15539C3.27745 7.31208 3.35438 7.45601 3.46734 7.56898C3.58029 7.68195 3.72421 7.75888 3.88089 7.79005C4.03757 7.82122 4.19997 7.80522 4.34755 7.74408C4.49514 7.68294 4.62128 7.57941 4.71003 7.44657C4.79878 7.31374 4.84615 7.15756 4.84615 6.9978C4.84615 6.78357 4.76106 6.57811 4.60959 6.42662C4.45812 6.27513 4.25267 6.19003 4.03846 6.19003ZM9.96154 6.19003C9.80179 6.19003 9.64563 6.2374 9.51281 6.32616C9.37998 6.41492 9.27646 6.54108 9.21533 6.68868C9.1542 6.83628 9.1382 6.9987 9.16937 7.15539C9.20053 7.31208 9.27746 7.45601 9.39041 7.56898C9.50337 7.68195 9.64729 7.75888 9.80397 7.79005C9.96064 7.82122 10.123 7.80522 10.2706 7.74408C10.4182 7.68294 10.5444 7.57941 10.6331 7.44657C10.7219 7.31374 10.7692 7.15756 10.7692 6.9978C10.7692 6.78357 10.6841 6.57811 10.5327 6.42662C10.3812 6.27513 10.1758 6.19003 9.96154 6.19003ZM14 6.9978C14.0003 8.20645 13.6876 9.39458 13.0925 10.4465C12.4974 11.4985 11.6402 12.3785 10.6041 13.0008C9.56809 13.6231 8.38861 13.9665 7.18048 13.9977C5.97235 14.0288 4.77673 13.7466 3.71 13.1786L1.41817 13.9426C1.22842 14.0059 1.0248 14.0151 0.830124 13.9691C0.635448 13.9232 0.457414 13.8239 0.315977 13.6825C0.174539 13.541 0.0752867 13.363 0.0293445 13.1683C-0.0165978 12.9736 -0.00741439 12.7699 0.0558652 12.5802L0.819808 10.2881C0.320484 9.34924 0.0415942 8.30894 0.0043059 7.24617C-0.0329824 6.1834 0.172311 5.12611 0.604604 4.15454C1.0369 3.18297 1.68483 2.32266 2.49921 1.63891C3.3136 0.955169 4.27304 0.465956 5.3047 0.208411C6.33636 -0.0491343 7.41313 -0.0682428 8.45328 0.152536C9.49343 0.373314 10.4696 0.828177 11.3077 1.4826C12.1459 2.13702 12.8239 2.9738 13.2904 3.92942C13.7569 4.88504 13.9996 5.93438 14 6.9978ZM12.9231 6.9978C12.9228 6.08914 12.7135 5.19272 12.3114 4.3779C11.9093 3.56307 11.3252 2.85168 10.6042 2.29876C9.8832 1.74584 9.04468 1.36621 8.1535 1.18925C7.26233 1.01229 6.34239 1.04275 5.46487 1.27825C4.58734 1.51375 3.77576 1.948 3.09289 2.54739C2.41003 3.14678 1.87419 3.89524 1.52685 4.73488C1.1795 5.57451 1.02995 6.48281 1.08977 7.38949C1.1496 8.29618 1.41718 9.17695 1.87183 9.96366C1.90999 10.0297 1.93368 10.1031 1.94134 10.179C1.949 10.2549 1.94044 10.3316 1.91625 10.4039L1.07692 12.9214L3.59423 12.082C3.64906 12.0633 3.70659 12.0538 3.76452 12.0538C3.85909 12.0539 3.95195 12.079 4.03375 12.1265C4.93419 12.6475 5.95597 12.9221 6.99626 12.9228C8.03655 12.9235 9.05867 12.6501 9.95977 12.1302C10.8609 11.6103 11.6092 10.8623 12.1294 9.96128C12.6496 9.0603 12.9233 8.03819 12.9231 6.9978Z" fill="#A3A3A3"/>
</svg>
