<svg width="8" height="9" viewBox="0 0 8 9" fill="none" xmlns="http://www.w3.org/2000/svg">
<path d="M6.54045 5.72248C6.44616 6.20527 6.19277 6.65 5.81438 6.99678C5.436 7.34356 4.9508 7.57574 4.42409 7.66207C4.4041 7.66501 4.38389 7.66654 4.36364 7.66666C4.27242 7.66663 4.18455 7.63519 4.11744 7.57856C4.05033 7.52193 4.00889 7.44424 4.00134 7.36092C3.99379 7.27759 4.02068 7.1947 4.07667 7.1287C4.13267 7.06269 4.21368 7.01839 4.30364 7.00457C5.05682 6.88832 5.69591 6.30248 5.82364 5.61081C5.83979 5.52362 5.89307 5.44588 5.97175 5.3947C6.05043 5.34352 6.14807 5.32308 6.24318 5.33789C6.3383 5.3527 6.4231 5.40154 6.47894 5.47366C6.53477 5.54578 6.55661 5.63528 6.54045 5.72248ZM8 5.33331C8 6.30577 7.57857 7.23841 6.82843 7.92605C6.07828 8.61369 5.06087 9 4 9C2.93913 9 1.92172 8.61369 1.17157 7.92605C0.421427 7.23841 0 6.30577 0 5.33331C0 4.16996 0.5 2.98037 1.48455 1.79786C1.51571 1.76042 1.55518 1.72945 1.60035 1.70701C1.64551 1.68456 1.69536 1.67115 1.74659 1.66764C1.79783 1.66414 1.84929 1.67063 1.89759 1.68668C1.9459 1.70274 1.98994 1.72799 2.02682 1.76078L3.12318 2.7362L4.12318 0.219101C4.14316 0.168898 4.17601 0.123834 4.21897 0.0877077C4.26193 0.0515816 4.31373 0.0254525 4.37001 0.0115231C4.42629 -0.00240625 4.4854 -0.00372752 4.54236 0.00767071C4.59931 0.0190689 4.65245 0.0428526 4.69727 0.0770165C5.69136 0.833272 8 2.8562 8 5.33331ZM7.27273 5.33331C7.27273 3.41287 5.64591 1.75328 4.62682 0.902856L3.61455 3.44746C3.59377 3.49972 3.55906 3.54639 3.51357 3.5832C3.46808 3.62002 3.41327 3.64582 3.35412 3.65824C3.29497 3.67067 3.23337 3.66933 3.17493 3.65435C3.1165 3.63936 3.06308 3.61121 3.01955 3.57246L1.82091 2.50662C1.095 3.46704 0.727273 4.41663 0.727273 5.33331C0.727273 6.12896 1.07208 6.89203 1.68583 7.45464C2.29959 8.01725 3.13202 8.33333 4 8.33333C4.86798 8.33333 5.70041 8.01725 6.31417 7.45464C6.92792 6.89203 7.27273 6.12896 7.27273 5.33331Z" fill="#FF0000"/>
</svg>
