<svg width="5" height="9" viewBox="0 0 5 9" fill="none" xmlns="http://www.w3.org/2000/svg">
<path d="M4.87781 4.78942L0.711611 8.88012C0.672902 8.91813 0.626949 8.94827 0.576374 8.96884C0.525799 8.98941 0.471593 9 0.416852 9C0.36211 9 0.307904 8.98941 0.257329 8.96884C0.206755 8.94827 0.160801 8.91813 0.122093 8.88012C0.0833846 8.84211 0.0526795 8.79699 0.0317308 8.74733C0.010782 8.69768 0 8.64445 0 8.5907C0 8.53695 0.010782 8.48373 0.0317308 8.43407C0.0526795 8.38441 0.0833846 8.33929 0.122093 8.30128L3.99406 4.5L0.122093 0.698715C0.043918 0.621957 -8.23706e-10 0.51785 0 0.409298C8.23707e-10 0.300745 0.043918 0.196639 0.122093 0.11988C0.200268 0.0431223 0.306296 8.08779e-10 0.416852 0C0.527408 -8.08779e-10 0.633436 0.0431223 0.711611 0.11988L4.87781 4.21058C4.91655 4.24857 4.94728 4.29369 4.96824 4.34335C4.98921 4.39301 5 4.44624 5 4.5C5 4.55376 4.98921 4.60699 4.96824 4.65665C4.94728 4.70631 4.91655 4.75143 4.87781 4.78942Z" fill="black"/>
</svg>
