<svg width="24" height="24" viewBox="0 0 24 24" fill="none" xmlns="http://www.w3.org/2000/svg">
<path d="M11.1154 1.77778V0.888889C11.1154 0.653141 11.2086 0.427049 11.3745 0.26035C11.5404 0.0936505 11.7654 0 12 0C12.2346 0 12.4596 0.0936505 12.6255 0.26035C12.7914 0.427049 12.8846 0.653141 12.8846 0.888889V1.77778C12.8846 2.01353 12.7914 2.23962 12.6255 2.40632C12.4596 2.57302 12.2346 2.66667 12 2.66667C11.7654 2.66667 11.5404 2.57302 11.3745 2.40632C11.2086 2.23962 11.1154 2.01353 11.1154 1.77778ZM19.9615 5.33333C20.0777 5.33343 20.1928 5.31051 20.3002 5.2659C20.4076 5.22129 20.5052 5.15585 20.5874 5.07333L21.472 4.18444C21.638 4.01765 21.7313 3.79143 21.7313 3.55556C21.7313 3.31968 21.638 3.09346 21.472 2.92667C21.306 2.75988 21.0809 2.66617 20.8462 2.66617C20.6114 2.66617 20.3863 2.75988 20.2203 2.92667L19.3357 3.81556C19.2118 3.93987 19.1275 4.09832 19.0933 4.27084C19.0591 4.44336 19.0766 4.62219 19.1436 4.7847C19.2106 4.94721 19.3241 5.08609 19.4697 5.18375C19.6153 5.28141 19.7865 5.33347 19.9615 5.33333ZM3.4126 5.07333C3.49479 5.15592 3.59236 5.22143 3.69975 5.26613C3.80713 5.31082 3.92223 5.33383 4.03846 5.33383C4.1547 5.33383 4.26979 5.31082 4.37718 5.26613C4.48456 5.22143 4.58214 5.15592 4.66433 5.07333C4.74652 4.99075 4.81171 4.8927 4.85619 4.7848C4.90067 4.67689 4.92357 4.56124 4.92357 4.44444C4.92357 4.32765 4.90067 4.212 4.85619 4.10409C4.81171 3.99619 4.74652 3.89814 4.66433 3.81556L3.77971 2.92667C3.61372 2.75988 3.38859 2.66617 3.15385 2.66617C2.9191 2.66617 2.69397 2.75988 2.52798 2.92667C2.36199 3.09346 2.26874 3.31968 2.26874 3.55556C2.26874 3.79143 2.36199 4.01765 2.52798 4.18444L3.4126 5.07333ZM23.5 19.5556V22.2222C23.5 22.6937 23.3136 23.1459 22.9818 23.4793C22.65 23.8127 22.2 24 21.7308 24H2.26923C1.8 24 1.34999 23.8127 1.0182 23.4793C0.6864 23.1459 0.5 22.6937 0.5 22.2222V19.5556C0.5 19.0841 0.6864 18.6319 1.0182 18.2985C1.34999 17.9651 1.8 17.7778 2.26923 17.7778V14.2222C2.26919 12.9319 2.52332 11.6543 3.01696 10.4632C3.51061 9.27198 4.234 8.19077 5.14545 7.28184C6.0569 6.37291 7.13837 5.65424 8.32753 5.16726C9.51668 4.68028 10.79 4.43462 12.0741 4.44444C17.3984 4.48444 21.7308 8.92111 21.7308 14.3333V17.7778C22.2 17.7778 22.65 17.9651 22.9818 18.2985C23.3136 18.6319 23.5 19.0841 23.5 19.5556ZM12.7387 9.76556C14.8385 10.12 16.4231 12.0356 16.4231 14.2222C16.4231 14.458 16.5163 14.6841 16.6822 14.8508C16.8481 15.0175 17.0731 15.1111 17.3077 15.1111C17.5423 15.1111 17.7673 15.0175 17.9332 14.8508C18.0991 14.6841 18.1923 14.458 18.1923 14.2222C18.1923 11.1778 15.973 8.50778 13.0306 8.01222C12.9155 7.99177 12.7975 7.99444 12.6835 8.02006C12.5695 8.04568 12.4616 8.09376 12.3661 8.16151C12.2707 8.22926 12.1896 8.31534 12.1274 8.41477C12.0652 8.51421 12.0233 8.62504 12.004 8.74086C11.9848 8.85667 11.9885 8.97518 12.0151 9.08953C12.0416 9.20388 12.0905 9.31181 12.1588 9.40709C12.2271 9.50237 12.3135 9.5831 12.413 9.64463C12.5125 9.70615 12.6232 9.74725 12.7387 9.76556ZM21.7308 22.2222V19.5556H2.26923V22.2222H21.7308Z" fill="#B3B3B3"/>
</svg>
