<svg width="18" height="18" viewBox="0 0 18 18" fill="none" xmlns="http://www.w3.org/2000/svg">
<path d="M17.3077 5.24118H13.1019L13.8349 0.872224C13.8644 0.677972 13.8222 0.478954 13.7176 0.318062C13.6129 0.15717 13.4542 0.0472872 13.2755 0.0120939C13.0969 -0.0230995 12.9126 0.0192149 12.7624 0.129918C12.6123 0.240621 12.5083 0.410848 12.4728 0.603914L11.6939 5.24118H7.56346L8.29644 0.872224C8.32589 0.677972 8.28375 0.478954 8.17912 0.318062C8.07449 0.15717 7.91573 0.0472872 7.73706 0.0120939C7.5584 -0.0230995 7.37414 0.0192149 7.22398 0.129918C7.07382 0.240621 6.9698 0.410848 6.93433 0.603914L6.15635 5.24118H2.07692C1.89331 5.24118 1.71722 5.32025 1.58739 5.461C1.45755 5.60175 1.38462 5.79265 1.38462 5.9917C1.38462 6.19075 1.45755 6.38165 1.58739 6.5224C1.71722 6.66315 1.89331 6.74222 2.07692 6.74222H5.90452L5.14904 11.2453H0.692308C0.508696 11.2453 0.332605 11.3244 0.202772 11.4652C0.0729393 11.6059 0 11.7968 0 11.9958C0 12.1949 0.0729393 12.3858 0.202772 12.5265C0.332605 12.6673 0.508696 12.7464 0.692308 12.7464H4.89808L4.1651 17.1153C4.1323 17.3111 4.17259 17.5131 4.2771 17.6767C4.38161 17.8403 4.54179 17.9522 4.7224 17.9878C4.76322 17.996 4.80465 18.0001 4.84615 18C5.00813 17.9998 5.16491 17.9379 5.28919 17.8253C5.41347 17.7127 5.49739 17.5564 5.52635 17.3836L6.30519 12.7464H10.4365L9.70356 17.1153C9.67076 17.3111 9.71105 17.5131 9.81557 17.6767C9.92008 17.8403 10.0803 17.9522 10.2609 17.9878C10.3017 17.996 10.3431 18.0001 10.3846 18C10.5466 17.9998 10.7034 17.9379 10.8277 17.8253C10.9519 17.7127 11.0359 17.5564 11.0648 17.3836L11.8437 12.7464H15.9231C16.1067 12.7464 16.2828 12.6673 16.4126 12.5265C16.5424 12.3858 16.6154 12.1949 16.6154 11.9958C16.6154 11.7968 16.5424 11.6059 16.4126 11.4652C16.2828 11.3244 16.1067 11.2453 15.9231 11.2453H12.0955L12.851 6.74222H17.3077C17.4913 6.74222 17.6674 6.66315 17.7972 6.5224C17.9271 6.38165 18 6.19075 18 5.9917C18 5.79265 17.9271 5.60175 17.7972 5.461C17.6674 5.32025 17.4913 5.24118 17.3077 5.24118ZM10.6875 11.2453H6.55702L7.3125 6.74222H11.443L10.6875 11.2453Z" fill="#A3A3A3"/>
</svg>
