<svg width="16" height="14" viewBox="0 0 16 14" fill="none" xmlns="http://www.w3.org/2000/svg">
<path d="M15.9986 4.10078C15.9699 5.11619 15.5609 6.08171 14.8558 6.79851L12.374 9.33364C12.0125 9.70468 11.5825 9.99883 11.109 10.1991C10.6354 10.3993 10.1276 10.5017 9.61501 10.5002H9.61144C9.0901 10.4999 8.57412 10.3928 8.09397 10.1854C7.61383 9.97807 7.17927 9.67457 6.81596 9.29286C6.45264 8.91115 6.16794 8.45899 5.97868 7.96307C5.78942 7.46715 5.69943 6.93753 5.71403 6.40552C5.7183 6.25082 5.78258 6.10418 5.89274 5.99787C6.00291 5.89156 6.14993 5.83428 6.30147 5.83863C6.453 5.84298 6.59664 5.90861 6.70077 6.02107C6.80491 6.13354 6.86102 6.28363 6.85676 6.43833C6.84635 6.8145 6.90992 7.18898 7.04369 7.53965C7.17746 7.89031 7.37872 8.21005 7.63559 8.47996C7.89246 8.74987 8.19971 8.96448 8.5392 9.11111C8.8787 9.25773 9.24353 9.3334 9.61215 9.33364C9.97452 9.33459 10.3335 9.2622 10.6683 9.12066C11.0031 8.97912 11.307 8.77123 11.5626 8.50901L14.0445 5.97534C14.5566 5.446 14.8427 4.73135 14.8404 3.98741C14.8381 3.24346 14.5476 2.53066 14.0323 2.0046C13.517 1.47855 12.8188 1.18199 12.0901 1.17966C11.3614 1.17734 10.6613 1.46943 10.1428 1.99218L9.35718 2.79421C9.24916 2.89898 9.10532 2.95652 8.95633 2.95458C8.80734 2.95263 8.66499 2.89134 8.55963 2.78378C8.45427 2.67622 8.39424 2.5309 8.39233 2.3788C8.39042 2.2267 8.44679 2.07985 8.54942 1.96958L9.33504 1.16755C9.6975 0.797399 10.1278 0.503772 10.6015 0.303441C11.0751 0.10311 11.5828 0 12.0954 0C12.6081 0 13.1158 0.10311 13.5894 0.303441C14.063 0.503772 14.4934 0.797399 14.8558 1.16755C15.2313 1.55176 15.5262 2.00995 15.7226 2.51422C15.9191 3.01849 16.013 3.55829 15.9986 4.10078ZM6.6425 11.2046L5.85687 12.0066C5.60064 12.2699 5.29568 12.4786 4.95973 12.6206C4.62378 12.7625 4.26354 12.8348 3.89996 12.8334C3.35452 12.833 2.82145 12.6675 2.36811 12.3579C1.91476 12.0482 1.56148 11.6084 1.3529 11.0939C1.14433 10.5794 1.08981 10.0133 1.19625 9.4672C1.30268 8.92108 1.56529 8.41942 1.9509 8.02561L4.42847 5.49193C4.8187 5.09145 5.31787 4.82001 5.86115 4.71286C6.40444 4.60572 6.96673 4.66781 7.475 4.89109C7.98326 5.11437 8.41403 5.48851 8.71134 5.96492C9.00865 6.44133 9.15877 6.99799 9.14221 7.56262C9.13795 7.71732 9.19406 7.86741 9.29819 7.97988C9.40233 8.09234 9.54597 8.15797 9.6975 8.16232C9.84904 8.16667 9.99606 8.10939 10.1062 8.00308C10.2164 7.89676 10.2807 7.75013 10.2849 7.59543C10.2987 7.05379 10.2044 6.51496 10.008 6.01162C9.81157 5.50827 9.51701 5.05092 9.14221 4.6673C8.41028 3.92042 7.41776 3.50085 6.38288 3.50085C5.34801 3.50085 4.35549 3.92042 3.62356 4.6673L1.14313 7.20098C0.597646 7.75763 0.226036 8.46686 0.0752635 9.23905C-0.0755087 10.0112 0.00132419 10.8117 0.296053 11.5394C0.590781 12.267 1.09018 12.8891 1.73113 13.3271C2.37208 13.765 3.12582 13.9992 3.8971 14C4.40981 14.0015 4.91771 13.8992 5.39142 13.6989C5.86512 13.4987 6.29521 13.2045 6.65678 12.8334L7.44241 12.0314C7.53487 11.9202 7.58318 11.7777 7.5778 11.6319C7.57242 11.4862 7.51375 11.3478 7.41336 11.244C7.31296 11.1402 7.17813 11.0786 7.03544 11.0713C6.89274 11.064 6.75255 11.1115 6.6425 11.2046Z" fill="#A3A3A3"/>
</svg>
