<svg width="25" height="21" viewBox="0 0 25 21" fill="none" xmlns="http://www.w3.org/2000/svg">
<path d="M6.33984 0.5C7.88952 0.499093 9.3762 1.11386 10.4727 2.20898L10.4844 2.2207L11.9062 3.54883L12.2471 3.86719L12.5879 3.5498L14.0195 2.2168L14.0312 2.20508C14.8494 1.3911 15.8901 0.83724 17.0225 0.614258C18.155 0.391313 19.3288 0.508883 20.3945 0.952148C21.4603 1.39543 22.3704 2.14514 23.0107 3.10547C23.6511 4.06583 23.9927 5.19435 23.9922 6.34863V6.34961C23.9939 7.11646 23.8435 7.87659 23.5498 8.58496C23.2561 9.29315 22.825 9.93604 22.2812 10.4766L22.2773 10.4805L12.5146 20.3877L12.5137 20.3887C12.4789 20.4239 12.4372 20.4516 12.3916 20.4707C12.3458 20.4898 12.2967 20.5 12.2471 20.5C12.1974 20.5 12.1483 20.4899 12.1025 20.4707C12.0569 20.4516 12.0153 20.4239 11.9805 20.3887V20.3877L2.2168 10.4805L2.21387 10.4775C1.11742 9.38239 0.500944 7.89637 0.5 6.34668C0.499094 4.797 1.11386 3.31033 2.20898 2.21387C3.30413 1.11742 4.79015 0.500944 6.33984 0.5Z" fill="black" fill-opacity="0.3" stroke="white"/>
</svg>
