<svg width="20" height="13" viewBox="0 0 20 13" fill="none" xmlns="http://www.w3.org/2000/svg">
<path d="M19.9425 6.23675C19.9133 6.17256 19.2075 4.64587 17.6383 3.11594C15.5475 1.07737 12.9067 0 10 0C7.09333 0 4.4525 1.07737 2.36166 3.11594C0.792493 4.64587 0.0833254 6.175 0.0574921 6.23675C0.0195863 6.31988 0 6.40984 0 6.50081C0 6.59179 0.0195863 6.68175 0.0574921 6.76487C0.0866587 6.82906 0.792493 8.35494 2.36166 9.88488C4.4525 11.9226 7.09333 13 10 13C12.9067 13 15.5475 11.9226 17.6383 9.88488C19.2075 8.35494 19.9133 6.82906 19.9425 6.76487C19.9804 6.68175 20 6.59179 20 6.50081C20 6.40984 19.9804 6.31988 19.9425 6.23675ZM10 11.7C7.435 11.7 5.19416 10.7908 3.33916 8.99844C2.57803 8.26044 1.93048 7.4189 1.41666 6.5C1.93034 5.58101 2.57791 4.73946 3.33916 4.00156C5.19416 2.20919 7.435 1.3 10 1.3C12.565 1.3 14.8058 2.20919 16.6608 4.00156C17.4235 4.73928 18.0724 5.58083 18.5875 6.5C17.9867 7.59362 15.3692 11.7 10 11.7ZM10 2.6C9.20887 2.6 8.43551 2.82873 7.77772 3.25727C7.11992 3.68581 6.60723 4.2949 6.30448 5.00753C6.00173 5.72017 5.92251 6.50433 6.07686 7.26085C6.2312 8.01738 6.61216 8.71229 7.17157 9.25772C7.73098 9.80314 8.44371 10.1746 9.21964 10.3251C9.99556 10.4755 10.7998 10.3983 11.5307 10.1031C12.2616 9.80795 12.8864 9.30808 13.3259 8.66672C13.7654 8.02537 14 7.27135 14 6.5C13.9989 5.46599 13.5771 4.47463 12.8272 3.74347C12.0773 3.01231 11.0605 2.60108 10 2.6ZM10 9.1C9.47258 9.1 8.95701 8.94751 8.51848 8.66182C8.07995 8.37613 7.73815 7.97006 7.53632 7.49498C7.33449 7.01989 7.28168 6.49712 7.38457 5.99276C7.48746 5.48841 7.74144 5.02514 8.11438 4.66152C8.48732 4.29791 8.96248 4.05028 9.47976 3.94996C9.99704 3.84964 10.5332 3.90112 11.0205 4.09791C11.5078 4.2947 11.9242 4.62795 12.2173 5.05552C12.5103 5.48309 12.6667 5.98577 12.6667 6.5C12.6667 7.18956 12.3857 7.85088 11.8856 8.33848C11.3855 8.82607 10.7072 9.1 10 9.1Z" fill="#A3A3A3"/>
</svg>
